# xmcd
# 
# Track frame offsets:
#     150
#     21583
#     42508
# 
# Disc length: 849
# 
# Revision: 2
# Processed by: cddbd v1.5.2PL0 Copyright (c) Steve Scherf et al.
# Submitted via: fre:ac v1.0.17
# 
DISCID=24034f03
DTITLE=中西保志 - 最後の雨
DYEAR=1992
DGENRE=J-Pop
TTITLE0=最後の雨
TTITLE1=君が微笑むなら
TTITLE2=最後の雨(オリジナル・カラオケ)
EXTD=
EXTT0=
EXTT1=
EXTT2=
PLAYORDER=
